<?xml version="1.0" encoding="UTF-8" standalone="no" ?>
<!DOCTYPE svg PUBLIC "-//W3C//DTD SVG 1.1//EN" "http://www.w3.org/Graphics/SVG/1.1/DTD/svg11.dtd">
<svg xmlns="http://www.w3.org/2000/svg" xmlns:xlink="http://www.w3.org/1999/xlink" version="1.1" width="659.6300000000001" height="151.75" xml:space="preserve">
<desc>Created with Fabric.js 1.6.0-rc.1</desc>
<defs></defs>
  <g transform="translate(345.28 89.2)">
   <text font-family="ADAMCG PRO" font-size="40" font-weight="normal" style="stroke: none; stroke-width: 1; stroke-dasharray: none; stroke-linecap: butt; stroke-linejoin: miter; stroke-miterlimit: 10; fill: #68dee0; fill-rule: nonzero; opacity: 1;" ><tspan x="-188.5" y="8.98" style="stroke: none; stroke-width: 0; stroke-dasharray: none; stroke-linecap: butt; stroke-linejoin: miter; stroke-miterlimit: 4; fill: #68dee0; fill-rule: ; opacity: 1;">O</tspan><tspan x="-154.5" y="8.98" style="stroke: none; stroke-width: 0; stroke-dasharray: none; stroke-linecap: butt; stroke-linejoin: miter; stroke-miterlimit: 4; fill: #68dee0; fill-rule: ; opacity: 1;">n</tspan><tspan x="-124.5" y="8.98" style="stroke: none; stroke-width: 0; stroke-dasharray: none; stroke-linecap: butt; stroke-linejoin: miter; stroke-miterlimit: 4; fill: #68dee0; fill-rule: ; opacity: 1;">l</tspan><tspan x="-104.5" y="8.98" style="stroke: none; stroke-width: 0; stroke-dasharray: none; stroke-linecap: butt; stroke-linejoin: miter; stroke-miterlimit: 4; fill: #68dee0; fill-rule: ; opacity: 1;">i</tspan><tspan x="-93.5" y="8.98" style="stroke: none; stroke-width: 0; stroke-dasharray: none; stroke-linecap: butt; stroke-linejoin: miter; stroke-miterlimit: 4; fill: #68dee0; fill-rule: ; opacity: 1;">n</tspan><tspan x="-63.5" y="8.98" style="stroke: none; stroke-width: 0; stroke-dasharray: none; stroke-linecap: butt; stroke-linejoin: miter; stroke-miterlimit: 4; fill: #68dee0; fill-rule: ; opacity: 1;">e</tspan><tspan x="-40.5" y="8.98" style="stroke: none; stroke-width: 0; stroke-dasharray: none; stroke-linecap: butt; stroke-linejoin: miter; stroke-miterlimit: 4; fill: #68dee0; fill-rule: ; opacity: 1;"> </tspan><tspan x="-28.5" y="8.98" style="stroke: none; stroke-width: 0; stroke-dasharray: none; stroke-linecap: butt; stroke-linejoin: miter; stroke-miterlimit: 4; fill: #68dee0; fill-rule: ; opacity: 1;">c</tspan><tspan x="-1.5" y="8.98" style="stroke: none; stroke-width: 0; stroke-dasharray: none; stroke-linecap: butt; stroke-linejoin: miter; stroke-miterlimit: 4; fill: #68dee0; fill-rule: ; opacity: 1;">o</tspan><tspan x="32.5" y="8.98" style="stroke: none; stroke-width: 0; stroke-dasharray: none; stroke-linecap: butt; stroke-linejoin: miter; stroke-miterlimit: 4; fill: #68dee0; fill-rule: ; opacity: 1;">m</tspan><tspan x="66.5" y="8.98" style="stroke: none; stroke-width: 0; stroke-dasharray: none; stroke-linecap: butt; stroke-linejoin: miter; stroke-miterlimit: 4; fill: #68dee0; fill-rule: ; opacity: 1;">p</tspan><tspan x="88.5" y="8.98" style="stroke: none; stroke-width: 0; stroke-dasharray: none; stroke-linecap: butt; stroke-linejoin: miter; stroke-miterlimit: 4; fill: #68dee0; fill-rule: ; opacity: 1;">u</tspan><tspan x="116.5" y="8.98" style="stroke: none; stroke-width: 0; stroke-dasharray: none; stroke-linecap: butt; stroke-linejoin: miter; stroke-miterlimit: 4; fill: #68dee0; fill-rule: ; opacity: 1;">t</tspan><tspan x="139.5" y="8.98" style="stroke: none; stroke-width: 0; stroke-dasharray: none; stroke-linecap: butt; stroke-linejoin: miter; stroke-miterlimit: 4; fill: #68dee0; fill-rule: ; opacity: 1;">e</tspan><tspan x="162.5" y="8.98" style="stroke: none; stroke-width: 0; stroke-dasharray: none; stroke-linecap: butt; stroke-linejoin: miter; stroke-miterlimit: 4; fill: #68dee0; fill-rule: ; opacity: 1;">r</tspan></text>
 </g>
<g style="stroke: none; stroke-width: 1; stroke-dasharray: none; stroke-linecap: butt; stroke-linejoin: miter; stroke-miterlimit: 10; fill: none; fill-rule: nonzero; opacity: 1;" transform="translate(10 10) scale(0.31 0.31)" >
  <polygon points="472,416 40,416 8,384 8,368 200,368 216,384 296,384 312,368 504,368 504,384 " style="stroke: none; stroke-width: 1; stroke-dasharray: none; stroke-linecap: butt; stroke-linejoin: miter; stroke-miterlimit: 10; fill: #FFFFFF; fill-rule: nonzero; opacity: 1;" transform="  matrix(1 0 0 1 0 0) "/>
  <path d="M 456 376 V 120 c 0 -13.6 -10.4 -24 -24 -24 H 80 c -13.6 0 -24 10.4 -24 24 v 256" style="stroke: none; stroke-width: 1; stroke-dasharray: none; stroke-linecap: butt; stroke-linejoin: miter; stroke-miterlimit: 10; fill: #FFFFFF; fill-rule: nonzero; opacity: 1;" transform=" matrix(1 0 0 1 0 0) " stroke-linecap="round" />
  <path d="M 475.2 424 H 36.8 L 0 387.2 V 360 h 203.2 l 16 16 h 73.6 l 16 -16 H 512 v 27.2 L 475.2 424 z M 43.2 408 h 425.6 l 27.2 -27.2 V 376 H 315.2 l -16 16 h -86.4 l -16 -16 H 16 v 4.8 L 43.2 408 z" style="stroke: none; stroke-width: 1; stroke-dasharray: none; stroke-linecap: butt; stroke-linejoin: miter; stroke-miterlimit: 10; fill: #4D5152; fill-rule: nonzero; opacity: 1;" transform=" matrix(1 0 0 1 0 0) " stroke-linecap="round" />
  <path d="M 464 360 h -16 V 120 c 0 -8.8 -7.2 -16 -16 -16 H 80 c -8.8 0 -16 7.2 -16 16 v 240 H 48 V 120 c 0 -17.6 14.4 -32 32 -32 h 352 c 17.6 0 32 14.4 32 32 V 360 z" style="stroke: none; stroke-width: 1; stroke-dasharray: none; stroke-linecap: butt; stroke-linejoin: miter; stroke-miterlimit: 10; fill: #4D5152; fill-rule: nonzero; opacity: 1;" transform=" matrix(1 0 0 1 0 0) " stroke-linecap="round" />
  <rect x="80" y="120" rx="0" ry="0" width="352" height="224" style="stroke: none; stroke-width: 1; stroke-dasharray: none; stroke-linecap: butt; stroke-linejoin: miter; stroke-miterlimit: 10; fill: #67DDE0; fill-rule: nonzero; opacity: 1;" transform=" matrix(1 0 0 1 0 0) "/>
  <rect x="216" y="312" rx="0" ry="0" width="16" height="16" style="stroke: none; stroke-width: 1; stroke-dasharray: none; stroke-linecap: butt; stroke-linejoin: miter; stroke-miterlimit: 10; fill: #4D5152; fill-rule: nonzero; opacity: 1;" transform=" matrix(1 0 0 1 0 0) "/>
  <rect x="184" y="312" rx="0" ry="0" width="16" height="16" style="stroke: none; stroke-width: 1; stroke-dasharray: none; stroke-linecap: butt; stroke-linejoin: miter; stroke-miterlimit: 10; fill: #4D5152; fill-rule: nonzero; opacity: 1;" transform=" matrix(1 0 0 1 0 0) "/>
  <rect x="248" y="312" rx="0" ry="0" width="16" height="16" style="stroke: none; stroke-width: 1; stroke-dasharray: none; stroke-linecap: butt; stroke-linejoin: miter; stroke-miterlimit: 10; fill: #4D5152; fill-rule: nonzero; opacity: 1;" transform=" matrix(1 0 0 1 0 0) "/>
  <rect x="280" y="312" rx="0" ry="0" width="16" height="16" style="stroke: none; stroke-width: 1; stroke-dasharray: none; stroke-linecap: butt; stroke-linejoin: miter; stroke-miterlimit: 10; fill: #4D5152; fill-rule: nonzero; opacity: 1;" transform=" matrix(1 0 0 1 0 0) "/>
  <rect x="312" y="312" rx="0" ry="0" width="16" height="16" style="stroke: none; stroke-width: 1; stroke-dasharray: none; stroke-linecap: butt; stroke-linejoin: miter; stroke-miterlimit: 10; fill: #4D5152; fill-rule: nonzero; opacity: 1;" transform=" matrix(1 0 0 1 0 0) "/>
</g>
  <g transform="translate(598.93 76.65) scale(1.95 1.95)">
   <text font-family="Freebooter Script" font-size="40" font-weight="normal" style="stroke: none; stroke-width: 1; stroke-dasharray: none; stroke-linecap: butt; stroke-linejoin: miter; stroke-miterlimit: 10; fill: #000000; fill-rule: nonzero; opacity: 1;" ><tspan x="-26.5" y="8.98" style="stroke: none; stroke-width: 0; stroke-dasharray: none; stroke-linecap: butt; stroke-linejoin: miter; stroke-miterlimit: 4; fill: #000000; fill-rule: ; opacity: 1;">s</tspan><tspan x="-15.5" y="8.98" style="stroke: none; stroke-width: 0; stroke-dasharray: none; stroke-linecap: butt; stroke-linejoin: miter; stroke-miterlimit: 4; fill: #000000; fill-rule: ; opacity: 1;">t</tspan><tspan x="-5.5" y="8.98" style="stroke: none; stroke-width: 0; stroke-dasharray: none; stroke-linecap: butt; stroke-linejoin: miter; stroke-miterlimit: 4; fill: #000000; fill-rule: ; opacity: 1;">o</tspan><tspan x="5.5" y="8.98" style="stroke: none; stroke-width: 0; stroke-dasharray: none; stroke-linecap: butt; stroke-linejoin: miter; stroke-miterlimit: 4; fill: #000000; fill-rule: ; opacity: 1;">r</tspan><tspan x="16.5" y="8.98" style="stroke: none; stroke-width: 0; stroke-dasharray: none; stroke-linecap: butt; stroke-linejoin: miter; stroke-miterlimit: 4; fill: #000000; fill-rule: ; opacity: 1;">e</tspan></text>
 </g>
<g style="stroke: none; stroke-width: 1; stroke-dasharray: none; stroke-linecap: butt; stroke-linejoin: miter; stroke-miterlimit: 10; fill: none; fill-rule: nonzero; opacity: 1;" transform="translate(62.27999999999997 59.77999999999997) scale(0.11 0.11)" >
  <circle cx="254" cy="254" r="254" style="stroke: none; stroke-width: 1; stroke-dasharray: none; stroke-linecap: butt; stroke-linejoin: miter; stroke-miterlimit: 10; fill: #1a1a1a; fill-rule: nonzero; opacity: 1;" transform="  matrix(1 0 0 1 0 0) "/>
  <polygon points="287.2,285.2 275.6,283.6 284.8,209.2 305.6,212.4 " style="stroke: none; stroke-width: 1; stroke-dasharray: none; stroke-linecap: butt; stroke-linejoin: miter; stroke-miterlimit: 10; fill: #324A5E; fill-rule: nonzero; opacity: 1;" transform="  matrix(1 0 0 1 0 0) "/>
  <polygon points="271.2,282.8 266.8,282.4 268.8,207.2 276.8,208.4 " style="stroke: none; stroke-width: 1; stroke-dasharray: none; stroke-linecap: butt; stroke-linejoin: miter; stroke-miterlimit: 10; fill: #324A5E; fill-rule: nonzero; opacity: 1;" transform="  matrix(1 0 0 1 0 0) "/>
  <polygon points="220.8,285.2 232.4,283.6 223.2,209.2 202.4,212.4 " style="stroke: none; stroke-width: 1; stroke-dasharray: none; stroke-linecap: butt; stroke-linejoin: miter; stroke-miterlimit: 10; fill: #324A5E; fill-rule: nonzero; opacity: 1;" transform="  matrix(1 0 0 1 0 0) "/>
  <polygon points="236.8,282.8 241.2,282.4 239.2,207.2 231.2,208.4 " style="stroke: none; stroke-width: 1; stroke-dasharray: none; stroke-linecap: butt; stroke-linejoin: miter; stroke-miterlimit: 10; fill: #324A5E; fill-rule: nonzero; opacity: 1;" transform="  matrix(1 0 0 1 0 0) "/>
  <polygon points="297.6,395.2 288,396.8 271.6,301.2 288.4,298.4 " style="stroke: none; stroke-width: 1; stroke-dasharray: none; stroke-linecap: butt; stroke-linejoin: miter; stroke-miterlimit: 10; fill: #2B3B4E; fill-rule: nonzero; opacity: 1;" transform="  matrix(1 0 0 1 0 0) "/>
  <polygon points="284.4,397.2 280.8,398 258.4,303.2 265.2,302.4 " style="stroke: none; stroke-width: 1; stroke-dasharray: none; stroke-linecap: butt; stroke-linejoin: miter; stroke-miterlimit: 10; fill: #2B3B4E; fill-rule: nonzero; opacity: 1;" transform="  matrix(1 0 0 1 0 0) "/>
  <polygon points="210.4,395.2 220,396.8 236.4,301.2 219.6,298.4 " style="stroke: none; stroke-width: 1; stroke-dasharray: none; stroke-linecap: butt; stroke-linejoin: miter; stroke-miterlimit: 10; fill: #2B3B4E; fill-rule: nonzero; opacity: 1;" transform="  matrix(1 0 0 1 0 0) "/>
  <polygon points="223.6,397.2 227.2,398 249.6,303.2 242.8,302.4 " style="stroke: none; stroke-width: 1; stroke-dasharray: none; stroke-linecap: butt; stroke-linejoin: miter; stroke-miterlimit: 10; fill: #2B3B4E; fill-rule: nonzero; opacity: 1;" transform="  matrix(1 0 0 1 0 0) "/>
  <rect x="334.7" y="177" rx="0" ry="0" width="9.2" height="72" style="stroke: none; stroke-width: 1; stroke-dasharray: none; stroke-linecap: butt; stroke-linejoin: miter; stroke-miterlimit: 10; fill: #324A5E; fill-rule: nonzero; opacity: 1;" transform=" matrix(-0.7071 0.7071 -0.7071 -0.7071 729.8444 123.6908) "/>
  <rect x="330.78" y="183.98" rx="0" ry="0" width="3.6" height="72" style="stroke: none; stroke-width: 1; stroke-dasharray: none; stroke-linecap: butt; stroke-linejoin: miter; stroke-miterlimit: 10; fill: #324A5E; fill-rule: nonzero; opacity: 1;" transform=" matrix(-0.7071 0.7071 -0.7071 -0.7071 723.2922 140.3637) "/>
  <polygon points="358,298.8 353.2,298.4 360.4,241.2 369.6,242.4 " style="stroke: none; stroke-width: 1; stroke-dasharray: none; stroke-linecap: butt; stroke-linejoin: miter; stroke-miterlimit: 10; fill: #2B3B4E; fill-rule: nonzero; opacity: 1;" transform="  matrix(1 0 0 1 0 0) "/>
  <polygon points="351.2,298 349.2,297.6 353.2,240 356.8,240.4 " style="stroke: none; stroke-width: 1; stroke-dasharray: none; stroke-linecap: butt; stroke-linejoin: miter; stroke-miterlimit: 10; fill: #2B3B4E; fill-rule: nonzero; opacity: 1;" transform="  matrix(1 0 0 1 0 0) "/>
  <circle cx="361.6" cy="238.8" r="16" style="stroke: none; stroke-width: 1; stroke-dasharray: none; stroke-linecap: butt; stroke-linejoin: miter; stroke-miterlimit: 10; fill: #FFFFFF; fill-rule: nonzero; opacity: 1;" transform="  matrix(1 0 0 1 0 0) "/>
  <path d="M 336.4 329.2 c -10 6.8 -20.8 8.4 -25.6 4 c 11.6 -3.2 19.6 -9.2 18.4 -14.4 c -0.8 -3.6 -6 -5.6 -13.2 -6 c 1.6 -1.6 4 -3.6 6 -5.2 c 10.8 -7.2 22.8 -8.4 26.8 -2.8 C 352.8 310.8 347.2 321.6 336.4 329.2 z" style="stroke: none; stroke-width: 1; stroke-dasharray: none; stroke-linecap: butt; stroke-linejoin: miter; stroke-miterlimit: 10; fill: #324A5E; fill-rule: nonzero; opacity: 1;" transform=" matrix(1 0 0 1 0 0) " stroke-linecap="round" />
  <path d="M 355.2 318 c -2.8 6 -6 9.2 -9.6 10.4 c 0 -14 -8.4 -24 -14 -29.2 c 3.2 -4.8 7.6 -9.6 11.6 -12.8 c 0 -2.8 0.4 -5.6 1.2 -8.8 c 13.2 0 20.4 -2.8 24.4 -6 c 0.4 4 -0.4 8.4 -2.8 12.8 c -1.6 3.2 -3.6 5.6 -5.6 7.6 C 361.6 300 359.2 310.4 355.2 318 z" style="stroke: none; stroke-width: 1; stroke-dasharray: none; stroke-linecap: butt; stroke-linejoin: miter; stroke-miterlimit: 10; fill: #FFFFFF; fill-rule: nonzero; opacity: 1;" transform=" matrix(1 0 0 1 0 0) " stroke-linecap="round" />
  <rect x="163.79" y="177.33" rx="0" ry="0" width="9.2" height="72" style="stroke: none; stroke-width: 1; stroke-dasharray: none; stroke-linecap: butt; stroke-linejoin: miter; stroke-miterlimit: 10; fill: #324A5E; fill-rule: nonzero; opacity: 1;" transform=" matrix(0.7071 0.7071 -0.7071 0.7071 200.1657 -56.5897) "/>
  <rect x="173.6" y="184.06" rx="0" ry="0" width="3.6" height="72" style="stroke: none; stroke-width: 1; stroke-dasharray: none; stroke-linecap: butt; stroke-linejoin: miter; stroke-miterlimit: 10; fill: #324A5E; fill-rule: nonzero; opacity: 1;" transform=" matrix(0.7071 0.7071 -0.7071 0.7071 206.9838 -59.5745) "/>
  <polygon points="150,298.8 154.8,298.4 147.6,241.2 138.4,242.4 " style="stroke: none; stroke-width: 1; stroke-dasharray: none; stroke-linecap: butt; stroke-linejoin: miter; stroke-miterlimit: 10; fill: #324A5E; fill-rule: nonzero; opacity: 1;" transform="  matrix(1 0 0 1 0 0) "/>
  <polygon points="156.8,298 158.8,297.6 154.8,240 151.2,240.4 " style="stroke: none; stroke-width: 1; stroke-dasharray: none; stroke-linecap: butt; stroke-linejoin: miter; stroke-miterlimit: 10; fill: #324A5E; fill-rule: nonzero; opacity: 1;" transform="  matrix(1 0 0 1 0 0) "/>
  <circle cx="146.4" cy="238.8" r="16" style="stroke: none; stroke-width: 1; stroke-dasharray: none; stroke-linecap: butt; stroke-linejoin: miter; stroke-miterlimit: 10; fill: #FFFFFF; fill-rule: nonzero; opacity: 1;" transform="  matrix(1 0 0 1 0 0) "/>
  <path d="M 171.6 329.2 c 10 6.8 20.8 8.4 25.6 4 C 186 330 178 324 178.8 318.8 c 0.8 -3.6 6 -5.6 13.2 -6 c -1.6 -1.6 -4 -3.6 -6 -5.2 c -10.8 -7.2 -22.8 -8.4 -26.8 -2.8 C 155.2 310.8 160.8 321.6 171.6 329.2 z" style="stroke: none; stroke-width: 1; stroke-dasharray: none; stroke-linecap: butt; stroke-linejoin: miter; stroke-miterlimit: 10; fill: #324A5E; fill-rule: nonzero; opacity: 1;" transform=" matrix(1 0 0 1 0 0) " stroke-linecap="round" />
  <path d="M 152.8 318 c 2.8 6 6 9.2 9.6 10.4 c 0 -14 8.4 -24 14 -29.2 c -3.2 -4.8 -7.6 -9.6 -11.6 -12.8 c 0 -2.8 -0.4 -5.6 -1.2 -8.8 c -13.2 0 -20.4 -2.8 -24.4 -6 c -0.4 4 0.4 8.4 2.8 12.8 c 1.6 3.2 3.6 5.6 5.6 7.6 C 146.4 300 148.8 310.4 152.8 318 z" style="stroke: none; stroke-width: 1; stroke-dasharray: none; stroke-linecap: butt; stroke-linejoin: miter; stroke-miterlimit: 10; fill: #FFFFFF; fill-rule: nonzero; opacity: 1;" transform=" matrix(1 0 0 1 0 0) " stroke-linecap="round" />
  <path d="M 317.6 414 c -0.8 32 -13.6 33.2 -29.2 32.4 c -15.6 -0.4 -28.4 -2 -27.2 -34.4 c 0.4 -8.8 1.6 -19.6 3.6 -29.6 c 19.6 -9.6 31.6 -26.4 38.8 -41.6 C 312.8 357.6 318.4 390.8 317.6 414 z" style="stroke: none; stroke-width: 1; stroke-dasharray: none; stroke-linecap: butt; stroke-linejoin: miter; stroke-miterlimit: 10; fill: #FFFFFF; fill-rule: nonzero; opacity: 1;" transform=" matrix(1 0 0 1 0 0) " stroke-linecap="round" />
  <path d="M 337.2 452.4 c -3.6 -17.6 -19.2 -31.2 -38 -31.2 s -34.4 13.2 -38 31.2 H 337.2 z" style="stroke: none; stroke-width: 1; stroke-dasharray: none; stroke-linecap: butt; stroke-linejoin: miter; stroke-miterlimit: 10; fill: #2B3B4E; fill-rule: nonzero; opacity: 1;" transform=" matrix(1 0 0 1 0 0) " stroke-linecap="round" />
  <path d="M 190.4 414 c 0.8 32 13.6 33.2 29.2 32.4 c 15.6 -0.4 28.4 -2 27.2 -34.4 c -0.4 -8.8 -1.6 -19.6 -3.6 -29.6 c -19.6 -9.6 -31.6 -26.4 -38.8 -41.6 C 195.2 357.6 189.6 390.8 190.4 414 z" style="stroke: none; stroke-width: 1; stroke-dasharray: none; stroke-linecap: butt; stroke-linejoin: miter; stroke-miterlimit: 10; fill: #FFFFFF; fill-rule: nonzero; opacity: 1;" transform=" matrix(1 0 0 1 0 0) " stroke-linecap="round" />
  <path d="M 170.8 452.4 c 3.6 -17.6 19.2 -31.2 38 -31.2 s 34.4 13.2 38 31.2 H 170.8 z" style="stroke: none; stroke-width: 1; stroke-dasharray: none; stroke-linecap: butt; stroke-linejoin: miter; stroke-miterlimit: 10; fill: #2B3B4E; fill-rule: nonzero; opacity: 1;" transform=" matrix(1 0 0 1 0 0) " stroke-linecap="round" />
  <rect x="242.4" y="122" rx="0" ry="0" width="23.2" height="30.4" style="stroke: none; stroke-width: 1; stroke-dasharray: none; stroke-linecap: butt; stroke-linejoin: miter; stroke-miterlimit: 10; fill: #324A5E; fill-rule: nonzero; opacity: 1;" transform=" matrix(1 0 0 1 0 0) "/>
  <path d="M 312.8 158.8 c -6.4 0 -12.4 1.6 -17.2 4.8 c -9.2 -13.2 -24.4 -21.6 -41.6 -21.6 s -32.4 8.4 -41.6 21.6 c -5.2 -3.2 -11.2 -4.8 -17.2 -4.8 c -18.8 0 -33.6 15.2 -33.6 33.6 c 0 18.8 15.2 33.6 33.6 33.6 c 6.4 0 12.4 -1.6 17.2 -4.8 c 9.2 13.2 24.4 21.6 41.6 21.6 s 32.4 -8.4 41.6 -21.6 c 5.2 3.2 11.2 4.8 17.2 4.8 c 18.8 0 33.6 -15.2 33.6 -33.6 C 346.4 174 331.6 158.8 312.8 158.8 z" style="stroke: none; stroke-width: 1; stroke-dasharray: none; stroke-linecap: butt; stroke-linejoin: miter; stroke-miterlimit: 10; fill: #FFFFFF; fill-rule: nonzero; opacity: 1;" transform=" matrix(1 0 0 1 0 0) " stroke-linecap="round" />
  <path d="M 284.8 130.4 h -61.6 c -2.8 0 -5.2 -2.4 -5.2 -5.2 V 80 c 0 -10.8 8.8 -20 20 -20 h 31.6 c 10.8 0 20 8.8 20 20 v 45.2 C 289.6 128 287.6 130.4 284.8 130.4 z" style="stroke: none; stroke-width: 1; stroke-dasharray: none; stroke-linecap: butt; stroke-linejoin: miter; stroke-miterlimit: 10; fill: #FFFFFF; fill-rule: nonzero; opacity: 1;" transform=" matrix(1 0 0 1 0 0) " stroke-linecap="round" />
  <rect x="224.4" y="84.8" rx="0" ry="0" width="59.6" height="32" style="stroke: none; stroke-width: 1; stroke-dasharray: none; stroke-linecap: butt; stroke-linejoin: miter; stroke-miterlimit: 10; fill: #1a1a1a; fill-rule: nonzero; opacity: 1;" transform=" matrix(1 0 0 1 0 0) "/>
  <polygon points="264.4,84.8 251.6,117.2 283.6,117.2 283.6,84.8 " style="stroke: none; stroke-width: 1; stroke-dasharray: none; stroke-linecap: butt; stroke-linejoin: miter; stroke-miterlimit: 10; fill: #54C0EB; fill-rule: nonzero; opacity: 1;" transform="  matrix(1 0 0 1 0 0) "/>
  <rect x="294.8" y="61.6" rx="0" ry="0" width="3.6" height="39.6" style="stroke: none; stroke-width: 1; stroke-dasharray: none; stroke-linecap: butt; stroke-linejoin: miter; stroke-miterlimit: 10; fill: #324A5E; fill-rule: nonzero; opacity: 1;" transform=" matrix(1 0 0 1 0 0) "/>
  <path d="M 289.6 111.6 h 9.6 c 2.4 0 4 -2 4 -4 V 96 c 0 -2.4 -2 -4 -4 -4 h -9.6 V 111.6 z" style="stroke: none; stroke-width: 1; stroke-dasharray: none; stroke-linecap: butt; stroke-linejoin: miter; stroke-miterlimit: 10; fill: #E6E9EE; fill-rule: nonzero; opacity: 1;" transform=" matrix(1 0 0 1 0 0) " stroke-linecap="round" />
  <circle cx="296.4" cy="61.6" r="6" style="stroke: none; stroke-width: 1; stroke-dasharray: none; stroke-linecap: butt; stroke-linejoin: miter; stroke-miterlimit: 10; fill: #FF7058; fill-rule: nonzero; opacity: 1;" transform="  matrix(1 0 0 1 0 0) "/>
  <rect x="209.6" y="61.6" rx="0" ry="0" width="3.6" height="39.6" style="stroke: none; stroke-width: 1; stroke-dasharray: none; stroke-linecap: butt; stroke-linejoin: miter; stroke-miterlimit: 10; fill: #324A5E; fill-rule: nonzero; opacity: 1;" transform=" matrix(1 0 0 1 0 0) "/>
  <path d="M 218.4 111.6 h -9.6 c -2.4 0 -4 -2 -4 -4 V 96 c 0 -2.4 2 -4 4 -4 h 9.6 V 111.6 z" style="stroke: none; stroke-width: 1; stroke-dasharray: none; stroke-linecap: butt; stroke-linejoin: miter; stroke-miterlimit: 10; fill: #E6E9EE; fill-rule: nonzero; opacity: 1;" transform=" matrix(1 0 0 1 0 0) " stroke-linecap="round" />
  <circle cx="211.6" cy="61.6" r="6" style="stroke: none; stroke-width: 1; stroke-dasharray: none; stroke-linecap: butt; stroke-linejoin: miter; stroke-miterlimit: 10; fill: #FF7058; fill-rule: nonzero; opacity: 1;" transform="  matrix(1 0 0 1 0 0) "/>
  <path d="M 195.2 269.6 C 199.6 298 224 320 254 320 s 54.4 -22 58.8 -50.4 H 195.2 z" style="stroke: none; stroke-width: 1; stroke-dasharray: none; stroke-linecap: butt; stroke-linejoin: miter; stroke-miterlimit: 10; fill: #FFFFFF; fill-rule: nonzero; opacity: 1;" transform=" matrix(1 0 0 1 0 0) " stroke-linecap="round" />
</g>
</svg>